STARTFONT 2.1
COMMENT 
COMMENT This file has been produced by ttf2bdf written by Subhabrata Biswas
COMMENT 
COMMENT For comments, questions, bug reports, send a mail to
COMMENT                                           subhabrata.biswas@usa.net
COMMENT 
FONT -*-Px437 IBM VGA 8x16-Medium-R-Normal--13-100-96-96-c-6--fontspecific
SIZE 10 96 96
FONTBOUNDINGBOX 6 13 0 -3
STARTPROPERTIES 15
FOUNDRY "Misc"
FAMILY_NAME "Px437 IBM VGA 8x16"
WEIGHT_NAME "Medium"
SLANT "R"
SETWIDTH_NAME "Normal"
PIXEL_SIZE 7
POINT_SIZE 100
RESOLUTION_X 96
RESOLUTION_Y 96
SPACING "C"
CHARSET_ENCODING "fontspecific"
FONT_ASCENT 10
FONT_DESCENT 3
DEFAULT_CHAR 1
COPYRIGHT "You may wish to put your copyright here"
ENDPROPERTIES
CHARS 255
STARTCHAR C0001
ENCODING 1
SWIDTH 450 0
DWIDTH 6 0
BBX 7 8 0 0
BITMAP
7C
CA
82
82
BA
B2
82
7C
ENDCHAR
STARTCHAR C0002
ENCODING 2
SWIDTH 450 0
DWIDTH 6 0
BBX 7 8 0 0
BITMAP
7C
FE
FE
FE
C6
CE
FE
7C
ENDCHAR
STARTCHAR C0003
ENCODING 3
SWIDTH 450 0
DWIDTH 6 0
BBX 6 7 0 0
BITMAP
58
FC
FC
FC
FC
30
20
ENDCHAR
STARTCHAR C0004
ENCODING 4
SWIDTH 450 0
DWIDTH 6 0
BBX 6 6 0 1
BITMAP
20
30
78
FC
78
20
ENDCHAR
STARTCHAR C0005
ENCODING 5
SWIDTH 450 0
DWIDTH 6 0
BBX 7 7 0 0
BITMAP
38
38
CE
CE
CE
30
38
ENDCHAR
STARTCHAR C0006
ENCODING 6
SWIDTH 450 0
DWIDTH 6 0
BBX 7 7 0 0
BITMAP
38
7C
FE
FE
7C
30
38
ENDCHAR
STARTCHAR C0007
ENCODING 7
SWIDTH 450 0
DWIDTH 6 0
BBX 3 3 2 2
BITMAP
C0
E0
E0
ENDCHAR
STARTCHAR C0008
ENCODING 8
SWIDTH 450 0
DWIDTH 6 0
BBX 7 13 0 -3
BITMAP
FE
FE
FE
FE
FE
CE
C6
C6
FE
FE
FE
FE
FE
ENDCHAR
STARTCHAR C0009
ENCODING 9
SWIDTH 450 0
DWIDTH 6 0
BBX 5 5 1 1
BITMAP
70
98
88
88
70
ENDCHAR
STARTCHAR C0010
ENCODING 10
SWIDTH 450 0
DWIDTH 6 0
BBX 7 13 0 -3
BITMAP
FE
FE
FE
FE
C6
B2
BA
BA
C6
FE
FE
FE
FE
ENDCHAR
STARTCHAR C0011
ENCODING 11
SWIDTH 450 0
DWIDTH 6 0
BBX 6 8 0 0
BITMAP
3C
3C
24
70
D8
D8
D8
70
ENDCHAR
STARTCHAR C0012
ENCODING 12
SWIDTH 450 0
DWIDTH 6 0
BBX 5 8 1 0
BITMAP
70
98
98
98
70
60
F8
60
ENDCHAR
STARTCHAR C0013
ENCODING 13
SWIDTH 450 0
DWIDTH 6 0
BBX 7 8 0 0
BITMAP
3E
3E
20
20
20
20
E0
C0
ENDCHAR
STARTCHAR C0014
ENCODING 14
SWIDTH 450 0
DWIDTH 6 0
BBX 7 9 0 -1
BITMAP
7E
7E
46
46
46
46
CE
CC
C0
ENDCHAR
STARTCHAR C0015
ENCODING 15
SWIDTH 450 0
DWIDTH 6 0
BBX 7 7 0 0
BITMAP
30
F6
38
CE
38
F6
30
ENDCHAR
STARTCHAR C0016
ENCODING 16
SWIDTH 450 0
DWIDTH 6 0
BBX 6 9 0 0
BITMAP
80
C0
E0
F0
FC
F0
E0
C0
80
ENDCHAR
STARTCHAR C0017
ENCODING 17
SWIDTH 450 0
DWIDTH 6 0
BBX 6 9 0 0
BITMAP
04
0C
3C
3C
FC
3C
3C
0C
04
ENDCHAR
STARTCHAR C0018
ENCODING 18
SWIDTH 450 0
DWIDTH 6 0
BBX 5 7 1 1
BITMAP
60
F8
60
60
60
F8
60
ENDCHAR
STARTCHAR C0019
ENCODING 19
SWIDTH 450 0
DWIDTH 6 0
BBX 5 8 1 0
BITMAP
98
98
98
98
98
98
98
98
ENDCHAR
STARTCHAR C0020
ENCODING 20
SWIDTH 450 0
DWIDTH 6 0
BBX 7 8 0 0
BITMAP
7E
F6
F6
76
36
36
36
36
ENDCHAR
STARTCHAR C0021
ENCODING 21
SWIDTH 450 0
DWIDTH 6 0
BBX 6 10 0 -1
BITMAP
78
CC
70
58
CC
CC
58
38
CC
78
ENDCHAR
STARTCHAR C0022
ENCODING 22
SWIDTH 450 0
DWIDTH 6 0
BBX 6 3 0 0
BITMAP
FC
FC
FC
ENDCHAR
STARTCHAR C0023
ENCODING 23
SWIDTH 450 0
DWIDTH 6 0
BBX 5 8 1 0
BITMAP
60
F8
60
60
60
F8
60
F8
ENDCHAR
STARTCHAR C0024
ENCODING 24
SWIDTH 450 0
DWIDTH 6 0
BBX 5 8 1 0
BITMAP
60
F8
60
60
60
60
60
60
ENDCHAR
STARTCHAR C0025
ENCODING 25
SWIDTH 450 0
DWIDTH 6 0
BBX 5 8 1 0
BITMAP
60
60
60
60
60
60
F8
60
ENDCHAR
STARTCHAR C0026
ENCODING 26
SWIDTH 450 0
DWIDTH 6 0
BBX 6 4 0 2
BITMAP
30
18
FC
38
ENDCHAR
STARTCHAR C0027
ENCODING 27
SWIDTH 450 0
DWIDTH 6 0
BBX 6 4 0 2
BITMAP
20
40
FC
60
ENDCHAR
STARTCHAR C0028
ENCODING 28
SWIDTH 450 0
DWIDTH 6 0
BBX 6 3 0 2
BITMAP
C0
C0
FC
ENDCHAR
STARTCHAR C0029
ENCODING 29
SWIDTH 450 0
DWIDTH 6 0
BBX 6 4 0 2
BITMAP
50
58
FC
58
ENDCHAR
STARTCHAR C0030
ENCODING 30
SWIDTH 450 0
DWIDTH 6 0
BBX 6 6 0 1
BITMAP
20
30
30
78
78
FC
ENDCHAR
STARTCHAR C0031
ENCODING 31
SWIDTH 450 0
DWIDTH 6 0
BBX 6 6 0 1
BITMAP
FC
FC
78
78
30
20
ENDCHAR
STARTCHAR C0032- 
ENCODING 32
SWIDTH 450 0
DWIDTH 6 0
BBX 1 1 0 -1
BITMAP
00
ENDCHAR
STARTCHAR C0033-!
ENCODING 33
SWIDTH 450 0
DWIDTH 6 0
BBX 3 8 2 0
BITMAP
C0
E0
E0
C0
C0
C0
C0
C0
ENDCHAR
STARTCHAR C0034-"
ENCODING 34
SWIDTH 450 0
DWIDTH 6 0
BBX 5 3 1 6
BITMAP
98
98
98
ENDCHAR
STARTCHAR C0035-#
ENCODING 35
SWIDTH 450 0
DWIDTH 6 0
BBX 6 7 0 0
BITMAP
58
FC
58
58
58
FC
58
ENDCHAR
STARTCHAR C0036-$
ENCODING 36
SWIDTH 450 0
DWIDTH 6 0
BBX 6 12 0 -2
BITMAP
30
30
78
CC
C0
78
0C
0C
CC
78
30
30
ENDCHAR
STARTCHAR C0037-%
ENCODING 37
SWIDTH 450 0
DWIDTH 6 0
BBX 6 7 0 0
BITMAP
C4
CC
18
30
20
CC
8C
ENDCHAR
STARTCHAR C0038-&
ENCODING 38
SWIDTH 450 0
DWIDTH 6 0
BBX 6 8 0 0
BITMAP
30
58
30
6C
F8
D8
D8
6C
ENDCHAR
STARTCHAR C0039-'
ENCODING 39
SWIDTH 450 0
DWIDTH 6 0
BBX 2 3 1 6
BITMAP
40
40
C0
ENDCHAR
STARTCHAR C0040-(
ENCODING 40
SWIDTH 450 0
DWIDTH 6 0
BBX 3 8 2 0
BITMAP
60
C0
80
80
80
80
C0
60
ENDCHAR
STARTCHAR C0041-)
ENCODING 41
SWIDTH 450 0
DWIDTH 6 0
BBX 3 8 2 0
BITMAP
80
E0
60
60
60
60
C0
80
ENDCHAR
STARTCHAR C0042-*
ENCODING 42
SWIDTH 450 0
DWIDTH 6 0
BBX 7 4 0 2
BITMAP
4C
38
FE
7C
ENDCHAR
STARTCHAR C0043-+
ENCODING 43
SWIDTH 450 0
DWIDTH 6 0
BBX 5 4 1 2
BITMAP
60
60
F8
60
ENDCHAR
STARTCHAR C0044-,
ENCODING 44
SWIDTH 450 0
DWIDTH 6 0
BBX 2 3 2 -1
BITMAP
C0
C0
80
ENDCHAR
STARTCHAR C0045--
ENCODING 45
SWIDTH 450 0
DWIDTH 6 0
BBX 6 1 0 3
BITMAP
FC
ENDCHAR
STARTCHAR C0046-.
ENCODING 46
SWIDTH 450 0
DWIDTH 6 0
BBX 2 2 2 0
BITMAP
C0
C0
ENDCHAR
STARTCHAR C0047-/
ENCODING 47
SWIDTH 450 0
DWIDTH 6 0
BBX 6 7 0 0
BITMAP
04
0C
18
30
20
C0
80
ENDCHAR
STARTCHAR C0048-0
ENCODING 48
SWIDTH 450 0
DWIDTH 6 0
BBX 6 8 0 0
BITMAP
30
DC
CC
EC
EC
CC
58
30
ENDCHAR
STARTCHAR C0049-1
ENCODING 49
SWIDTH 450 0
DWIDTH 6 0
BBX 5 8 1 0
BITMAP
60
E0
60
60
60
60
60
F8
ENDCHAR
STARTCHAR C0050-2
ENCODING 50
SWIDTH 450 0
DWIDTH 6 0
BBX 6 8 0 0
BITMAP
78
CC
18
30
20
40
CC
FC
ENDCHAR
STARTCHAR C0051-3
ENCODING 51
SWIDTH 450 0
DWIDTH 6 0
BBX 6 8 0 0
BITMAP
78
CC
0C
38
0C
0C
CC
78
ENDCHAR
STARTCHAR C0052-4
ENCODING 52
SWIDTH 450 0
DWIDTH 6 0
BBX 6 8 0 0
BITMAP
18
38
58
D8
FC
18
18
3C
ENDCHAR
STARTCHAR C0053-5
ENCODING 53
SWIDTH 450 0
DWIDTH 6 0
BBX 6 8 0 0
BITMAP
FC
C0
C0
F8
0C
0C
CC
78
ENDCHAR
STARTCHAR C0054-6
ENCODING 54
SWIDTH 450 0
DWIDTH 6 0
BBX 6 8 0 0
BITMAP
30
C0
C0
F8
CC
CC
CC
78
ENDCHAR
STARTCHAR C0055-7
ENCODING 55
SWIDTH 450 0
DWIDTH 6 0
BBX 6 8 0 0
BITMAP
FC
CC
0C
18
30
20
20
20
ENDCHAR
STARTCHAR C0056-8
ENCODING 56
SWIDTH 450 0
DWIDTH 6 0
BBX 6 8 0 0
BITMAP
78
CC
CC
78
CC
CC
CC
78
ENDCHAR
STARTCHAR C0057-9
ENCODING 57
SWIDTH 450 0
DWIDTH 6 0
BBX 6 8 0 0
BITMAP
78
CC
CC
7C
0C
0C
18
70
ENDCHAR
STARTCHAR C0058-:
ENCODING 58
SWIDTH 450 0
DWIDTH 6 0
BBX 2 6 2 1
BITMAP
C0
C0
00
00
00
C0
ENDCHAR
STARTCHAR C0059-;
ENCODING 59
SWIDTH 450 0
DWIDTH 6 0
BBX 2 7 2 0
BITMAP
C0
C0
00
00
00
C0
80
ENDCHAR
STARTCHAR C0060-<
ENCODING 60
SWIDTH 450 0
DWIDTH 6 0
BBX 5 7 1 0
BITMAP
38
60
40
80
40
30
18
ENDCHAR
STARTCHAR C0061-=
ENCODING 61
SWIDTH 450 0
DWIDTH 6 0
BBX 5 4 1 2
BITMAP
F8
00
00
F8
ENDCHAR
STARTCHAR C0062->
ENCODING 62
SWIDTH 450 0
DWIDTH 6 0
BBX 5 7 1 0
BITMAP
C0
60
30
18
30
40
80
ENDCHAR
STARTCHAR C0063-?
ENCODING 63
SWIDTH 450 0
DWIDTH 6 0
BBX 6 8 0 0
BITMAP
78
CC
18
30
30
30
30
30
ENDCHAR
STARTCHAR C0064-@
ENCODING 64
SWIDTH 450 0
DWIDTH 6 0
BBX 6 7 0 0
BITMAP
FC
CC
FC
FC
FC
C0
78
ENDCHAR
STARTCHAR C0065-A
ENCODING 65
SWIDTH 450 0
DWIDTH 6 0
BBX 6 8 0 0
BITMAP
20
78
CC
CC
FC
CC
CC
CC
ENDCHAR
STARTCHAR C0066-B
ENCODING 66
SWIDTH 450 0
DWIDTH 6 0
BBX 6 8 0 0
BITMAP
F8
4C
4C
78
4C
4C
4C
F8
ENDCHAR
STARTCHAR C0067-C
ENCODING 67
SWIDTH 450 0
DWIDTH 6 0
BBX 6 8 0 0
BITMAP
38
CC
C0
C0
C0
C0
4C
38
ENDCHAR
STARTCHAR C0068-D
ENCODING 68
SWIDTH 450 0
DWIDTH 6 0
BBX 6 8 0 0
BITMAP
F0
5C
4C
4C
4C
4C
58
F0
ENDCHAR
STARTCHAR C0069-E
ENCODING 69
SWIDTH 450 0
DWIDTH 6 0
BBX 6 8 0 0
BITMAP
FC
4C
50
70
50
40
4C
FC
ENDCHAR
STARTCHAR C0070-F
ENCODING 70
SWIDTH 450 0
DWIDTH 6 0
BBX 6 8 0 0
BITMAP
FC
4C
50
70
50
40
40
E0
ENDCHAR
STARTCHAR C0071-G
ENCODING 71
SWIDTH 450 0
DWIDTH 6 0
BBX 6 8 0 0
BITMAP
38
CC
C0
C0
FC
CC
4C
34
ENDCHAR
STARTCHAR C0072-H
ENCODING 72
SWIDTH 450 0
DWIDTH 6 0
BBX 6 8 0 0
BITMAP
CC
CC
CC
FC
CC
CC
CC
CC
ENDCHAR
STARTCHAR C0073-I
ENCODING 73
SWIDTH 450 0
DWIDTH 6 0
BBX 3 8 2 0
BITMAP
E0
C0
C0
C0
C0
C0
C0
E0
ENDCHAR
STARTCHAR C0074-J
ENCODING 74
SWIDTH 450 0
DWIDTH 6 0
BBX 6 8 0 0
BITMAP
3C
18
18
18
18
D8
D8
70
ENDCHAR
STARTCHAR C0075-K
ENCODING 75
SWIDTH 450 0
DWIDTH 6 0
BBX 6 8 0 0
BITMAP
CC
4C
58
70
70
58
4C
CC
ENDCHAR
STARTCHAR C0076-L
ENCODING 76
SWIDTH 450 0
DWIDTH 6 0
BBX 6 8 0 0
BITMAP
E0
40
40
40
40
40
4C
FC
ENDCHAR
STARTCHAR C0077-M
ENCODING 77
SWIDTH 450 0
DWIDTH 6 0
BBX 6 8 0 0
BITMAP
CC
FC
FC
EC
CC
CC
CC
CC
ENDCHAR
STARTCHAR C0078-N
ENCODING 78
SWIDTH 450 0
DWIDTH 6 0
BBX 6 8 0 0
BITMAP
CC
EC
FC
FC
DC
CC
CC
CC
ENDCHAR
STARTCHAR C0079-O
ENCODING 79
SWIDTH 450 0
DWIDTH 6 0
BBX 6 8 0 0
BITMAP
78
CC
CC
CC
CC
CC
CC
78
ENDCHAR
STARTCHAR C0080-P
ENCODING 80
SWIDTH 450 0
DWIDTH 6 0
BBX 6 8 0 0
BITMAP
F8
4C
4C
78
40
40
40
E0
ENDCHAR
STARTCHAR C0081-Q
ENCODING 81
SWIDTH 450 0
DWIDTH 6 0
BBX 6 10 0 -2
BITMAP
78
CC
CC
CC
CC
CC
FC
78
18
1C
ENDCHAR
STARTCHAR C0082-R
ENCODING 82
SWIDTH 450 0
DWIDTH 6 0
BBX 6 8 0 0
BITMAP
F8
4C
4C
78
58
4C
4C
CC
ENDCHAR
STARTCHAR C0083-S
ENCODING 83
SWIDTH 450 0
DWIDTH 6 0
BBX 6 8 0 0
BITMAP
78
CC
40
30
18
0C
CC
78
ENDCHAR
STARTCHAR C0084-T
ENCODING 84
SWIDTH 450 0
DWIDTH 6 0
BBX 5 8 1 0
BITMAP
F8
F8
60
60
60
60
60
70
ENDCHAR
STARTCHAR C0085-U
ENCODING 85
SWIDTH 450 0
DWIDTH 6 0
BBX 6 8 0 0
BITMAP
CC
CC
CC
CC
CC
CC
CC
78
ENDCHAR
STARTCHAR C0086-V
ENCODING 86
SWIDTH 450 0
DWIDTH 6 0
BBX 6 8 0 0
BITMAP
CC
CC
CC
CC
CC
CC
30
20
ENDCHAR
STARTCHAR C0087-W
ENCODING 87
SWIDTH 450 0
DWIDTH 6 0
BBX 6 8 0 0
BITMAP
CC
CC
CC
EC
EC
EC
DC
58
ENDCHAR
STARTCHAR C0088-X
ENCODING 88
SWIDTH 450 0
DWIDTH 6 0
BBX 6 8 0 0
BITMAP
CC
DC
78
30
30
78
CC
CC
ENDCHAR
STARTCHAR C0089-Y
ENCODING 89
SWIDTH 450 0
DWIDTH 6 0
BBX 5 8 1 0
BITMAP
98
98
98
70
60
60
60
70
ENDCHAR
STARTCHAR C0090-Z
ENCODING 90
SWIDTH 450 0
DWIDTH 6 0
BBX 6 8 0 0
BITMAP
FC
CC
18
30
20
40
CC
FC
ENDCHAR
STARTCHAR C0091-[
ENCODING 91
SWIDTH 450 0
DWIDTH 6 0
BBX 3 8 2 0
BITMAP
E0
80
80
80
80
80
80
E0
ENDCHAR
STARTCHAR C0092-\
ENCODING 92
SWIDTH 450 0
DWIDTH 6 0
BBX 6 7 0 0
BITMAP
C0
C0
60
30
38
0C
04
ENDCHAR
STARTCHAR C0093-]
ENCODING 93
SWIDTH 450 0
DWIDTH 6 0
BBX 3 8 2 0
BITMAP
E0
60
60
60
60
60
60
E0
ENDCHAR
STARTCHAR C0094-^
ENCODING 94
SWIDTH 450 0
DWIDTH 6 0
BBX 6 4 0 6
BITMAP
20
30
58
CC
ENDCHAR
STARTCHAR C0095-_
ENCODING 95
SWIDTH 450 0
DWIDTH 6 0
BBX 7 1 0 -2
BITMAP
FE
ENDCHAR
STARTCHAR C0096-`
ENCODING 96
SWIDTH 450 0
DWIDTH 6 0
BBX 2 3 2 7
BITMAP
80
80
C0
ENDCHAR
STARTCHAR C0097-a
ENCODING 97
SWIDTH 450 0
DWIDTH 6 0
BBX 6 6 0 0
BITMAP
70
18
78
D8
D8
6C
ENDCHAR
STARTCHAR C0098-b
ENCODING 98
SWIDTH 450 0
DWIDTH 6 0
BBX 6 8 0 0
BITMAP
C0
40
70
58
4C
4C
4C
78
ENDCHAR
STARTCHAR C0099-c
ENCODING 99
SWIDTH 450 0
DWIDTH 6 0
BBX 6 6 0 0
BITMAP
78
CC
C0
C0
CC
78
ENDCHAR
STARTCHAR C0100-d
ENCODING 100
SWIDTH 450 0
DWIDTH 6 0
BBX 6 8 0 0
BITMAP
38
18
38
58
D8
D8
D8
6C
ENDCHAR
STARTCHAR C0101-e
ENCODING 101
SWIDTH 450 0
DWIDTH 6 0
BBX 6 6 0 0
BITMAP
78
CC
FC
C0
CC
78
ENDCHAR
STARTCHAR C0102-f
ENCODING 102
SWIDTH 450 0
DWIDTH 6 0
BBX 5 8 0 0
BITMAP
30
58
40
E0
40
40
40
E0
ENDCHAR
STARTCHAR C0103-g
ENCODING 103
SWIDTH 450 0
DWIDTH 6 0
BBX 6 8 0 -2
BITMAP
6C
D8
D8
D8
D8
78
18
F8
ENDCHAR
STARTCHAR C0104-h
ENCODING 104
SWIDTH 450 0
DWIDTH 6 0
BBX 6 8 0 0
BITMAP
C0
40
58
6C
4C
4C
4C
CC
ENDCHAR
STARTCHAR C0105-i
ENCODING 105
SWIDTH 450 0
DWIDTH 6 0
BBX 3 8 2 0
BITMAP
C0
C0
C0
C0
C0
C0
C0
E0
ENDCHAR
STARTCHAR C0106-j
ENCODING 106
SWIDTH 450 0
DWIDTH 6 0
BBX 5 10 1 -2
BITMAP
18
18
38
18
18
18
18
18
98
F8
ENDCHAR
STARTCHAR C0107-k
ENCODING 107
SWIDTH 450 0
DWIDTH 6 0
BBX 6 8 0 0
BITMAP
C0
40
4C
58
70
70
4C
CC
ENDCHAR
STARTCHAR C0108-l
ENCODING 108
SWIDTH 450 0
DWIDTH 6 0
BBX 3 8 2 0
BITMAP
C0
C0
C0
C0
C0
C0
C0
E0
ENDCHAR
STARTCHAR C0109-m
ENCODING 109
SWIDTH 450 0
DWIDTH 6 0
BBX 6 6 0 0
BITMAP
D8
FC
EC
EC
EC
CC
ENDCHAR
STARTCHAR C0110-n
ENCODING 110
SWIDTH 450 0
DWIDTH 6 0
BBX 6 6 0 0
BITMAP
F8
4C
4C
4C
4C
4C
ENDCHAR
STARTCHAR C0111-o
ENCODING 111
SWIDTH 450 0
DWIDTH 6 0
BBX 6 6 0 0
BITMAP
78
CC
CC
CC
CC
78
ENDCHAR
STARTCHAR C0112-p
ENCODING 112
SWIDTH 450 0
DWIDTH 6 0
BBX 6 8 0 -2
BITMAP
F8
4C
4C
4C
4C
78
40
E0
ENDCHAR
STARTCHAR C0113-q
ENCODING 113
SWIDTH 450 0
DWIDTH 6 0
BBX 6 8 0 -2
BITMAP
6C
D8
D8
D8
D8
78
18
3C
ENDCHAR
STARTCHAR C0114-r
ENCODING 114
SWIDTH 450 0
DWIDTH 6 0
BBX 6 6 0 0
BITMAP
F8
6C
4C
40
40
E0
ENDCHAR
STARTCHAR C0115-s
ENCODING 115
SWIDTH 450 0
DWIDTH 6 0
BBX 6 6 0 0
BITMAP
78
CC
40
30
CC
78
ENDCHAR
STARTCHAR C0116-t
ENCODING 116
SWIDTH 450 0
DWIDTH 6 0
BBX 6 8 0 0
BITMAP
20
20
F8
20
20
20
2C
38
ENDCHAR
STARTCHAR C0117-u
ENCODING 117
SWIDTH 450 0
DWIDTH 6 0
BBX 6 6 0 0
BITMAP
D8
D8
D8
D8
D8
6C
ENDCHAR
STARTCHAR C0118-v
ENCODING 118
SWIDTH 450 0
DWIDTH 6 0
BBX 5 6 1 0
BITMAP
98
98
98
98
70
60
ENDCHAR
STARTCHAR C0119-w
ENCODING 119
SWIDTH 450 0
DWIDTH 6 0
BBX 6 6 0 0
BITMAP
CC
CC
EC
EC
FC
58
ENDCHAR
STARTCHAR C0120-x
ENCODING 120
SWIDTH 450 0
DWIDTH 6 0
BBX 6 6 0 0
BITMAP
CC
58
30
30
58
CC
ENDCHAR
STARTCHAR C0121-y
ENCODING 121
SWIDTH 450 0
DWIDTH 6 0
BBX 6 8 0 -2
BITMAP
CC
CC
CC
CC
CC
7C
0C
F8
ENDCHAR
STARTCHAR C0122-z
ENCODING 122
SWIDTH 450 0
DWIDTH 6 0
BBX 6 6 0 0
BITMAP
FC
D8
30
20
CC
FC
ENDCHAR
STARTCHAR C0123-{
ENCODING 123
SWIDTH 450 0
DWIDTH 6 0
BBX 5 8 1 0
BITMAP
38
60
60
C0
60
60
60
38
ENDCHAR
STARTCHAR C0124-|
ENCODING 124
SWIDTH 450 0
DWIDTH 6 0
BBX 2 8 2 0
BITMAP
C0
C0
C0
00
C0
C0
C0
C0
ENDCHAR
STARTCHAR C0125-}
ENCODING 125
SWIDTH 450 0
DWIDTH 6 0
BBX 5 8 1 0
BITMAP
C0
60
60
38
60
60
60
C0
ENDCHAR
STARTCHAR C0126-~
ENCODING 126
SWIDTH 450 0
DWIDTH 6 0
BBX 6 2 0 6
BITMAP
6C
F8
ENDCHAR
STARTCHAR C0127
ENCODING 127
SWIDTH 450 0
DWIDTH 6 0
BBX 6 6 0 1
BITMAP
20
30
58
CC
CC
FC
ENDCHAR
STARTCHAR C0128
ENCODING 128
SWIDTH 450 0
DWIDTH 6 0
BBX 6 10 0 -2
BITMAP
38
CC
C0
C0
C0
C4
38
18
0C
78
ENDCHAR
STARTCHAR C0129
ENCODING 129
SWIDTH 450 0
DWIDTH 6 0
BBX 6 8 0 0
BITMAP
D8
00
D8
D8
D8
D8
D8
6C
ENDCHAR
STARTCHAR C0130
ENCODING 130
SWIDTH 450 0
DWIDTH 6 0
BBX 6 9 0 0
BITMAP
18
30
20
78
CC
FC
C0
CC
78
ENDCHAR
STARTCHAR C0131
ENCODING 131
SWIDTH 450 0
DWIDTH 6 0
BBX 6 9 0 0
BITMAP
20
30
58
70
18
78
D8
D8
6C
ENDCHAR
STARTCHAR C0132
ENCODING 132
SWIDTH 450 0
DWIDTH 6 0
BBX 6 8 0 0
BITMAP
D8
00
70
18
78
D8
D8
6C
ENDCHAR
STARTCHAR C0133
ENCODING 133
SWIDTH 450 0
DWIDTH 6 0
BBX 6 9 0 0
BITMAP
40
20
30
70
18
78
D8
D8
6C
ENDCHAR
STARTCHAR C0134
ENCODING 134
SWIDTH 450 0
DWIDTH 6 0
BBX 6 9 0 0
BITMAP
30
58
30
70
18
78
D8
D8
6C
ENDCHAR
STARTCHAR C0135
ENCODING 135
SWIDTH 450 0
DWIDTH 6 0
BBX 5 8 1 -1
BITMAP
70
98
80
80
98
70
18
70
ENDCHAR
STARTCHAR C0136
ENCODING 136
SWIDTH 450 0
DWIDTH 6 0
BBX 6 9 0 0
BITMAP
20
30
58
78
CC
FC
C0
CC
78
ENDCHAR
STARTCHAR C0137
ENCODING 137
SWIDTH 450 0
DWIDTH 6 0
BBX 6 8 0 0
BITMAP
CC
00
78
CC
FC
C0
CC
78
ENDCHAR
STARTCHAR C0138
ENCODING 138
SWIDTH 450 0
DWIDTH 6 0
BBX 6 9 0 0
BITMAP
40
20
30
78
CC
FC
C0
CC
78
ENDCHAR
STARTCHAR C0139
ENCODING 139
SWIDTH 450 0
DWIDTH 6 0
BBX 5 8 1 0
BITMAP
98
00
60
60
60
60
60
70
ENDCHAR
STARTCHAR C0140
ENCODING 140
SWIDTH 450 0
DWIDTH 6 0
BBX 5 9 1 0
BITMAP
60
70
98
60
60
60
60
60
70
ENDCHAR
STARTCHAR C0141
ENCODING 141
SWIDTH 450 0
DWIDTH 6 0
BBX 4 9 1 0
BITMAP
80
40
60
60
60
60
60
60
70
ENDCHAR
STARTCHAR C0142
ENCODING 142
SWIDTH 450 0
DWIDTH 6 0
BBX 6 9 0 0
BITMAP
CC
00
30
58
CC
CC
FC
CC
CC
ENDCHAR
STARTCHAR C0143
ENCODING 143
SWIDTH 450 0
DWIDTH 6 0
BBX 6 10 0 0
BITMAP
30
58
30
30
58
CC
CC
FC
CC
CC
ENDCHAR
STARTCHAR C0144
ENCODING 144
SWIDTH 450 0
DWIDTH 6 0
BBX 6 10 0 0
BITMAP
30
20
40
FC
4C
40
78
40
4C
FC
ENDCHAR
STARTCHAR C0145
ENCODING 145
SWIDTH 450 0
DWIDTH 6 0
BBX 6 6 0 0
BITMAP
D8
6C
2C
7C
F0
5C
ENDCHAR
STARTCHAR C0146
ENCODING 146
SWIDTH 450 0
DWIDTH 6 0
BBX 6 8 0 0
BITMAP
3C
D8
D8
FC
D8
D8
D8
DC
ENDCHAR
STARTCHAR C0147
ENCODING 147
SWIDTH 450 0
DWIDTH 6 0
BBX 6 9 0 0
BITMAP
20
30
58
78
CC
CC
CC
CC
78
ENDCHAR
STARTCHAR C0148
ENCODING 148
SWIDTH 450 0
DWIDTH 6 0
BBX 6 8 0 0
BITMAP
CC
00
78
CC
CC
CC
CC
78
ENDCHAR
STARTCHAR C0149
ENCODING 149
SWIDTH 450 0
DWIDTH 6 0
BBX 6 9 0 0
BITMAP
40
20
30
78
CC
CC
CC
CC
78
ENDCHAR
STARTCHAR C0150
ENCODING 150
SWIDTH 450 0
DWIDTH 6 0
BBX 6 9 0 0
BITMAP
20
70
D8
D8
D8
D8
D8
D8
6C
ENDCHAR
STARTCHAR C0151
ENCODING 151
SWIDTH 450 0
DWIDTH 6 0
BBX 6 9 0 0
BITMAP
40
20
30
D8
D8
D8
D8
D8
6C
ENDCHAR
STARTCHAR C0152
ENCODING 152
SWIDTH 450 0
DWIDTH 6 0
BBX 6 10 0 -2
BITMAP
CC
00
CC
CC
CC
CC
CC
7C
0C
78
ENDCHAR
STARTCHAR C0153
ENCODING 153
SWIDTH 450 0
DWIDTH 6 0
BBX 6 9 0 0
BITMAP
CC
00
FC
CC
CC
CC
CC
CC
78
ENDCHAR
STARTCHAR C0154
ENCODING 154
SWIDTH 450 0
DWIDTH 6 0
BBX 6 9 0 0
BITMAP
CC
00
CC
CC
CC
CC
CC
CC
78
ENDCHAR
STARTCHAR C0155
ENCODING 155
SWIDTH 450 0
DWIDTH 6 0
BBX 5 9 1 0
BITMAP
60
60
F8
80
80
80
98
60
60
ENDCHAR
STARTCHAR C0156
ENCODING 156
SWIDTH 450 0
DWIDTH 6 0
BBX 6 9 0 0
BITMAP
30
58
48
E0
40
40
40
CC
F8
ENDCHAR
STARTCHAR C0157
ENCODING 157
SWIDTH 450 0
DWIDTH 6 0
BBX 5 8 1 0
BITMAP
98
F8
60
F8
60
F8
60
60
ENDCHAR
STARTCHAR C0158
ENCODING 158
SWIDTH 450 0
DWIDTH 6 0
BBX 6 9 0 0
BITMAP
F0
D8
F8
C8
D8
FC
D8
D8
CC
ENDCHAR
STARTCHAR C0159
ENCODING 159
SWIDTH 450 0
DWIDTH 6 0
BBX 7 11 0 -2
BITMAP
1C
36
30
30
7C
30
30
30
30
F0
60
ENDCHAR
STARTCHAR C0160
ENCODING 160
SWIDTH 450 0
DWIDTH 6 0
BBX 6 9 0 0
BITMAP
30
20
40
70
18
78
D8
D8
6C
ENDCHAR
STARTCHAR C0161
ENCODING 161
SWIDTH 450 0
DWIDTH 6 0
BBX 3 9 2 0
BITMAP
60
C0
80
C0
C0
C0
C0
C0
E0
ENDCHAR
STARTCHAR C0162
ENCODING 162
SWIDTH 450 0
DWIDTH 6 0
BBX 6 9 0 0
BITMAP
30
20
40
78
CC
CC
CC
CC
78
ENDCHAR
STARTCHAR C0163
ENCODING 163
SWIDTH 450 0
DWIDTH 6 0
BBX 6 9 0 0
BITMAP
30
20
40
D8
D8
D8
D8
D8
6C
ENDCHAR
STARTCHAR C0164
ENCODING 164
SWIDTH 450 0
DWIDTH 6 0
BBX 6 8 0 0
BITMAP
6C
F8
F8
4C
4C
4C
4C
4C
ENDCHAR
STARTCHAR C0165
ENCODING 165
SWIDTH 450 0
DWIDTH 6 0
BBX 6 10 0 0
BITMAP
6C
F8
00
CC
EC
FC
FC
DC
CC
CC
ENDCHAR
STARTCHAR C0166
ENCODING 166
SWIDTH 450 0
DWIDTH 6 0
BBX 5 5 1 4
BITMAP
70
B0
F8
00
F8
ENDCHAR
STARTCHAR C0167
ENCODING 167
SWIDTH 450 0
DWIDTH 6 0
BBX 4 5 1 4
BITMAP
60
B0
F0
00
F0
ENDCHAR
STARTCHAR C0168
ENCODING 168
SWIDTH 450 0
DWIDTH 6 0
BBX 6 8 0 0
BITMAP
20
20
20
20
40
C0
CC
78
ENDCHAR
STARTCHAR C0169
ENCODING 169
SWIDTH 450 0
DWIDTH 6 0
BBX 6 4 0 1
BITMAP
FC
C0
C0
C0
ENDCHAR
STARTCHAR C0170
ENCODING 170
SWIDTH 450 0
DWIDTH 6 0
BBX 6 4 0 1
BITMAP
FC
0C
0C
0C
ENDCHAR
STARTCHAR C0171
ENCODING 171
SWIDTH 450 0
DWIDTH 6 0
BBX 6 11 0 -2
BITMAP
C0
C0
CC
D8
30
20
40
BC
18
30
3C
ENDCHAR
STARTCHAR C0172
ENCODING 172
SWIDTH 450 0
DWIDTH 6 0
BBX 6 11 0 -2
BITMAP
C0
C0
CC
D8
30
20
4C
BC
3C
0C
0C
ENDCHAR
STARTCHAR C0173
ENCODING 173
SWIDTH 450 0
DWIDTH 6 0
BBX 3 8 2 0
BITMAP
C0
C0
C0
C0
C0
E0
E0
C0
ENDCHAR
STARTCHAR C0174
ENCODING 174
SWIDTH 450 0
DWIDTH 6 0
BBX 6 4 0 2
BITMAP
2C
58
F0
7C
ENDCHAR
STARTCHAR C0175
ENCODING 175
SWIDTH 450 0
DWIDTH 6 0
BBX 6 4 0 2
BITMAP
F0
58
2C
F8
ENDCHAR
STARTCHAR C0176
ENCODING 176
SWIDTH 450 0
DWIDTH 6 0
BBX 6 13 1 -3
BITMAP
44
90
44
D4
90
44
90
44
D4
90
44
90
D4
ENDCHAR
STARTCHAR C0177
ENCODING 177
SWIDTH 450 0
DWIDTH 6 0
BBX 7 13 0 -3
BITMAP
6A
D4
6A
FE
D4
6A
D4
6A
FE
D4
6A
D4
FE
ENDCHAR
STARTCHAR C0178
ENCODING 178
SWIDTH 450 0
DWIDTH 6 0
BBX 7 13 0 -3
BITMAP
FA
6E
FA
FE
6E
FA
6E
FA
FE
6E
FA
6E
FE
ENDCHAR
STARTCHAR C0179
ENCODING 179
SWIDTH 450 0
DWIDTH 6 0
BBX 2 13 2 -3
BITMAP
C0
C0
C0
C0
C0
C0
C0
C0
C0
C0
C0
C0
C0
ENDCHAR
STARTCHAR C0180
ENCODING 180
SWIDTH 450 0
DWIDTH 6 0
BBX 4 13 0 -3
BITMAP
30
30
30
30
30
30
F0
30
30
30
30
30
30
ENDCHAR
STARTCHAR C0181
ENCODING 181
SWIDTH 450 0
DWIDTH 6 0
BBX 4 13 0 -3
BITMAP
30
30
30
30
F0
30
F0
30
30
30
30
30
30
ENDCHAR
STARTCHAR C0182
ENCODING 182
SWIDTH 450 0
DWIDTH 6 0
BBX 6 13 0 -3
BITMAP
2C
2C
2C
2C
2C
2C
EC
2C
2C
2C
2C
2C
2C
ENDCHAR
STARTCHAR C0183
ENCODING 183
SWIDTH 450 0
DWIDTH 6 0
BBX 6 7 0 -3
BITMAP
FC
2C
2C
2C
2C
2C
2C
ENDCHAR
STARTCHAR C0184
ENCODING 184
SWIDTH 450 0
DWIDTH 6 0
BBX 4 9 0 -3
BITMAP
F0
30
F0
30
30
30
30
30
30
ENDCHAR
STARTCHAR C0185
ENCODING 185
SWIDTH 450 0
DWIDTH 6 0
BBX 6 13 0 -3
BITMAP
2C
2C
2C
2C
EC
0C
EC
2C
2C
2C
2C
2C
2C
ENDCHAR
STARTCHAR C0186
ENCODING 186
SWIDTH 450 0
DWIDTH 6 0
BBX 4 13 2 -3
BITMAP
B0
B0
B0
B0
B0
B0
B0
B0
B0
B0
B0
B0
B0
ENDCHAR
STARTCHAR C0187
ENCODING 187
SWIDTH 450 0
DWIDTH 6 0
BBX 6 9 0 -3
BITMAP
FC
0C
EC
2C
2C
2C
2C
2C
2C
ENDCHAR
STARTCHAR C0188
ENCODING 188
SWIDTH 450 0
DWIDTH 6 0
BBX 6 7 0 3
BITMAP
2C
2C
2C
2C
EC
0C
FC
ENDCHAR
STARTCHAR C0189
ENCODING 189
SWIDTH 450 0
DWIDTH 6 0
BBX 6 7 0 3
BITMAP
2C
2C
2C
2C
2C
2C
FC
ENDCHAR
STARTCHAR C0190
ENCODING 190
SWIDTH 450 0
DWIDTH 6 0
BBX 4 7 0 3
BITMAP
30
30
30
30
F0
30
F0
ENDCHAR
STARTCHAR C0191
ENCODING 191
SWIDTH 450 0
DWIDTH 6 0
BBX 4 7 0 -3
BITMAP
F0
30
30
30
30
30
30
ENDCHAR
STARTCHAR C0192
ENCODING 192
SWIDTH 450 0
DWIDTH 6 0
BBX 5 7 2 3
BITMAP
C0
C0
C0
C0
C0
C0
F8
ENDCHAR
STARTCHAR C0193
ENCODING 193
SWIDTH 450 0
DWIDTH 6 0
BBX 7 7 0 3
BITMAP
30
30
30
30
30
30
FE
ENDCHAR
STARTCHAR C0194
ENCODING 194
SWIDTH 450 0
DWIDTH 6 0
BBX 7 7 0 -3
BITMAP
FE
30
30
30
30
30
30
ENDCHAR
STARTCHAR C0195
ENCODING 195
SWIDTH 450 0
DWIDTH 6 0
BBX 5 13 2 -3
BITMAP
C0
C0
C0
C0
C0
C0
F8
C0
C0
C0
C0
C0
C0
ENDCHAR
STARTCHAR C0196
ENCODING 196
SWIDTH 450 0
DWIDTH 6 0
BBX 7 1 0 3
BITMAP
FE
ENDCHAR
STARTCHAR C0197
ENCODING 197
SWIDTH 450 0
DWIDTH 6 0
BBX 7 13 0 -3
BITMAP
30
30
30
30
30
30
FE
30
30
30
30
30
30
ENDCHAR
STARTCHAR C0198
ENCODING 198
SWIDTH 450 0
DWIDTH 6 0
BBX 5 13 2 -3
BITMAP
C0
C0
C0
C0
F8
C0
F8
C0
C0
C0
C0
C0
C0
ENDCHAR
STARTCHAR C0199
ENCODING 199
SWIDTH 450 0
DWIDTH 6 0
BBX 5 13 2 -3
BITMAP
B0
B0
B0
B0
B0
B0
B8
B0
B0
B0
B0
B0
B0
ENDCHAR
STARTCHAR C0200
ENCODING 200
SWIDTH 450 0
DWIDTH 6 0
BBX 5 7 2 3
BITMAP
B0
B0
B0
B0
B8
80
F8
ENDCHAR
STARTCHAR C0201
ENCODING 201
SWIDTH 450 0
DWIDTH 6 0
BBX 5 9 2 -3
BITMAP
F8
80
B8
B0
B0
B0
B0
B0
B0
ENDCHAR
STARTCHAR C0202
ENCODING 202
SWIDTH 450 0
DWIDTH 6 0
BBX 7 7 0 3
BITMAP
2C
2C
2C
2C
EE
00
FE
ENDCHAR
STARTCHAR C0203
ENCODING 203
SWIDTH 450 0
DWIDTH 6 0
BBX 7 9 0 -3
BITMAP
FE
00
EE
2C
2C
2C
2C
2C
2C
ENDCHAR
STARTCHAR C0204
ENCODING 204
SWIDTH 450 0
DWIDTH 6 0
BBX 5 13 2 -3
BITMAP
B0
B0
B0
B0
B8
80
B8
B0
B0
B0
B0
B0
B0
ENDCHAR
STARTCHAR C0205
ENCODING 205
SWIDTH 450 0
DWIDTH 6 0
BBX 7 3 0 3
BITMAP
FE
00
FE
ENDCHAR
STARTCHAR C0206
ENCODING 206
SWIDTH 450 0
DWIDTH 6 0
BBX 7 13 0 -3
BITMAP
2C
2C
2C
2C
EE
00
EE
2C
2C
2C
2C
2C
2C
ENDCHAR
STARTCHAR C0207
ENCODING 207
SWIDTH 450 0
DWIDTH 6 0
BBX 7 7 0 3
BITMAP
30
30
30
30
FE
00
FE
ENDCHAR
STARTCHAR C0208
ENCODING 208
SWIDTH 450 0
DWIDTH 6 0
BBX 7 7 0 3
BITMAP
2C
2C
2C
2C
2C
2C
FE
ENDCHAR
STARTCHAR C0209
ENCODING 209
SWIDTH 450 0
DWIDTH 6 0
BBX 7 9 0 -3
BITMAP
FE
00
FE
30
30
30
30
30
30
ENDCHAR
STARTCHAR C0210
ENCODING 210
SWIDTH 450 0
DWIDTH 6 0
BBX 7 7 0 -3
BITMAP
FE
2C
2C
2C
2C
2C
2C
ENDCHAR
STARTCHAR C0211
ENCODING 211
SWIDTH 450 0
DWIDTH 6 0
BBX 5 7 2 3
BITMAP
B0
B0
B0
B0
B0
B0
F8
ENDCHAR
STARTCHAR C0212
ENCODING 212
SWIDTH 450 0
DWIDTH 6 0
BBX 5 7 2 3
BITMAP
C0
C0
C0
C0
F8
C0
F8
ENDCHAR
STARTCHAR C0213
ENCODING 213
SWIDTH 450 0
DWIDTH 6 0
BBX 5 9 2 -3
BITMAP
F8
C0
F8
C0
C0
C0
C0
C0
C0
ENDCHAR
STARTCHAR C0214
ENCODING 214
SWIDTH 450 0
DWIDTH 6 0
BBX 5 7 2 -3
BITMAP
F8
B0
B0
B0
B0
B0
B0
ENDCHAR
STARTCHAR C0215
ENCODING 215
SWIDTH 450 0
DWIDTH 6 0
BBX 7 13 0 -3
BITMAP
2C
2C
2C
2C
2C
2C
FE
2C
2C
2C
2C
2C
2C
ENDCHAR
STARTCHAR C0216
ENCODING 216
SWIDTH 450 0
DWIDTH 6 0
BBX 7 13 0 -3
BITMAP
30
30
30
30
FE
30
FE
30
30
30
30
30
30
ENDCHAR
STARTCHAR C0217
ENCODING 217
SWIDTH 450 0
DWIDTH 6 0
BBX 4 7 0 3
BITMAP
30
30
30
30
30
30
F0
ENDCHAR
STARTCHAR C0218
ENCODING 218
SWIDTH 450 0
DWIDTH 6 0
BBX 5 7 2 -3
BITMAP
F8
C0
C0
C0
C0
C0
C0
ENDCHAR
STARTCHAR C0219
ENCODING 219
SWIDTH 450 0
DWIDTH 6 0
BBX 7 13 0 -3
BITMAP
FE
FE
FE
FE
FE
FE
FE
FE
FE
FE
FE
FE
FE
ENDCHAR
STARTCHAR C0220
ENCODING 220
SWIDTH 450 0
DWIDTH 6 0
BBX 7 7 0 -3
BITMAP
FE
FE
FE
FE
FE
FE
FE
ENDCHAR
STARTCHAR C0221
ENCODING 221
SWIDTH 450 0
DWIDTH 6 0
BBX 3 13 0 -3
BITMAP
E0
E0
E0
E0
E0
E0
E0
E0
E0
E0
E0
E0
E0
ENDCHAR
STARTCHAR C0222
ENCODING 222
SWIDTH 450 0
DWIDTH 6 0
BBX 4 13 3 -3
BITMAP
F0
F0
F0
F0
F0
F0
F0
F0
F0
F0
F0
F0
F0
ENDCHAR
STARTCHAR C0223
ENCODING 223
SWIDTH 450 0
DWIDTH 6 0
BBX 7 6 0 4
BITMAP
FE
FE
FE
FE
FE
FE
ENDCHAR
STARTCHAR C0224
ENCODING 224
SWIDTH 450 0
DWIDTH 6 0
BBX 6 6 0 0
BITMAP
6C
F8
F0
F0
F8
6C
ENDCHAR
STARTCHAR C0225
ENCODING 225
SWIDTH 450 0
DWIDTH 6 0
BBX 6 8 0 0
BITMAP
70
D8
D8
F0
D8
CC
CC
D8
ENDCHAR
STARTCHAR C0226
ENCODING 226
SWIDTH 450 0
DWIDTH 6 0
BBX 6 8 0 0
BITMAP
FC
CC
C0
C0
C0
C0
C0
C0
ENDCHAR
STARTCHAR C0227
ENCODING 227
SWIDTH 450 0
DWIDTH 6 0
BBX 6 7 0 0
BITMAP
FC
58
58
58
58
58
58
ENDCHAR
STARTCHAR C0228
ENCODING 228
SWIDTH 450 0
DWIDTH 6 0
BBX 6 7 0 0
BITMAP
FC
40
20
30
20
CC
FC
ENDCHAR
STARTCHAR C0229
ENCODING 229
SWIDTH 450 0
DWIDTH 6 0
BBX 6 6 0 0
BITMAP
7C
F0
F0
F0
F0
60
ENDCHAR
STARTCHAR C0230
ENCODING 230
SWIDTH 450 0
DWIDTH 6 0
BBX 6 8 0 -1
BITMAP
4C
4C
4C
4C
4C
70
40
C0
ENDCHAR
STARTCHAR C0231
ENCODING 231
SWIDTH 450 0
DWIDTH 6 0
BBX 6 7 0 0
BITMAP
6C
F8
30
30
30
30
30
ENDCHAR
STARTCHAR C0232
ENCODING 232
SWIDTH 450 0
DWIDTH 6 0
BBX 5 7 1 0
BITMAP
F8
70
98
98
98
60
F8
ENDCHAR
STARTCHAR C0233
ENCODING 233
SWIDTH 450 0
DWIDTH 6 0
BBX 6 7 0 0
BITMAP
78
CC
CC
FC
CC
58
30
ENDCHAR
STARTCHAR C0234
ENCODING 234
SWIDTH 450 0
DWIDTH 6 0
BBX 6 8 0 0
BITMAP
30
DC
CC
CC
58
58
58
DC
ENDCHAR
STARTCHAR C0235
ENCODING 235
SWIDTH 450 0
DWIDTH 6 0
BBX 5 8 1 0
BITMAP
78
60
30
78
98
98
98
70
ENDCHAR
STARTCHAR C0236
ENCODING 236
SWIDTH 450 0
DWIDTH 6 0
BBX 7 4 0 2
BITMAP
7C
F6
F6
FE
ENDCHAR
STARTCHAR C0237
ENCODING 237
SWIDTH 450 0
DWIDTH 6 0
BBX 7 7 0 0
BITMAP
0E
7C
F6
F6
E6
58
C0
ENDCHAR
STARTCHAR C0238
ENCODING 238
SWIDTH 450 0
DWIDTH 6 0
BBX 4 8 1 0
BITMAP
70
C0
80
F0
80
80
40
70
ENDCHAR
STARTCHAR C0239
ENCODING 239
SWIDTH 450 0
DWIDTH 6 0
BBX 6 7 0 0
BITMAP
FC
CC
CC
CC
CC
CC
CC
ENDCHAR
STARTCHAR C0240
ENCODING 240
SWIDTH 450 0
DWIDTH 6 0
BBX 6 6 0 1
BITMAP
FC
00
00
FC
00
FC
ENDCHAR
STARTCHAR C0241
ENCODING 241
SWIDTH 450 0
DWIDTH 6 0
BBX 7 7 0 0
BITMAP
30
30
7C
30
30
00
FE
ENDCHAR
STARTCHAR C0242
ENCODING 242
SWIDTH 450 0
DWIDTH 6 0
BBX 5 7 1 0
BITMAP
60
30
18
30
60
00
F8
ENDCHAR
STARTCHAR C0243
ENCODING 243
SWIDTH 450 0
DWIDTH 6 0
BBX 5 7 1 0
BITMAP
70
40
80
40
60
10
F8
ENDCHAR
STARTCHAR C0244
ENCODING 244
SWIDTH 450 0
DWIDTH 6 0
BBX 5 11 2 -3
BITMAP
70
D8
C0
C0
C0
C0
C0
C0
C0
C0
C0
ENDCHAR
STARTCHAR C0245
ENCODING 245
SWIDTH 450 0
DWIDTH 6 0
BBX 4 10 0 0
BITMAP
30
30
30
30
30
30
30
F0
F0
60
ENDCHAR
STARTCHAR C0246
ENCODING 246
SWIDTH 450 0
DWIDTH 6 0
BBX 5 6 1 1
BITMAP
60
60
00
F8
00
60
ENDCHAR
STARTCHAR C0247
ENCODING 247
SWIDTH 450 0
DWIDTH 6 0
BBX 6 4 0 2
BITMAP
6C
F8
00
FC
ENDCHAR
STARTCHAR C0248
ENCODING 248
SWIDTH 450 0
DWIDTH 6 0
BBX 4 3 1 6
BITMAP
60
B0
F0
ENDCHAR
STARTCHAR C0249
ENCODING 249
SWIDTH 450 0
DWIDTH 6 0
BBX 2 2 2 2
BITMAP
C0
C0
ENDCHAR
STARTCHAR C0250
ENCODING 250
SWIDTH 450 0
DWIDTH 6 0
BBX 2 1 2 2
BITMAP
C0
ENDCHAR
STARTCHAR C0251
ENCODING 251
SWIDTH 450 0
DWIDTH 6 0
BBX 7 9 0 0
BITMAP
1E
18
18
18
18
D8
58
38
38
ENDCHAR
STARTCHAR C0252
ENCODING 252
SWIDTH 450 0
DWIDTH 6 0
BBX 5 5 0 4
BITMAP
F0
58
58
58
58
ENDCHAR
STARTCHAR C0253
ENCODING 253
SWIDTH 450 0
DWIDTH 6 0
BBX 4 5 0 4
BITMAP
60
F0
60
D0
F0
ENDCHAR
STARTCHAR C0254
ENCODING 254
SWIDTH 450 0
DWIDTH 6 0
BBX 4 6 1 1
BITMAP
F0
F0
F0
F0
F0
F0
ENDCHAR
STARTCHAR C0255
ENCODING 255
SWIDTH 450 0
DWIDTH 6 0
BBX 1 1 0 -1
BITMAP
00
ENDCHAR
ENDFONT

